<svg width="314" height="88" viewBox="0 0 314 88" fill="none" xmlns="http://www.w3.org/2000/svg">
<rect width="314" height="88" fill="#D65FE3"/>
<path d="M20.925 60.865V70H11.925V39.985H26.64C30.21 39.985 33.045 40.78 35.145 42.37C37.245 43.96 38.295 46.495 38.295 49.975C38.295 53.455 37.245 56.14 35.145 58.03C33.045 59.92 30.21 60.865 26.64 60.865H20.925ZM20.925 54.115H25.515C26.295 54.115 26.985 53.83 27.585 53.26C28.185 52.69 28.485 51.82 28.485 50.65C28.485 49.3 28.185 48.31 27.585 47.68C26.985 47.05 26.295 46.735 25.515 46.735H20.925V54.115ZM36.9158 70L47.9858 39.985H57.9758L68.0558 70H58.8308L57.1658 64.735H46.8608L45.2408 70H36.9158ZM48.8408 58.435H55.1408L51.9458 48.49L48.8408 58.435ZM74.4613 70V46.735H66.9463V39.985H91.1563V46.735H83.4613V70H74.4613ZM95.2014 70V39.985H104.201V51.55H113.111V39.985H122.111V70H113.111V58.75H104.201V70H95.2014ZM140.07 70V39.985H161.355V46.735H149.07V52.495H159.6V59.29H149.07V70H140.07ZM166.305 70V39.985H175.35V70H166.305ZM181.202 70V39.985H188.492L199.787 54.745V39.985H207.977V70H201.677L189.392 54.655V70H181.202ZM213.81 70V39.985H226.995C232.275 39.985 236.115 41.26 238.515 43.81C240.945 46.36 242.16 50.095 242.16 55.015C242.16 59.905 240.945 63.625 238.515 66.175C236.115 68.725 232.275 70 226.995 70H213.81ZM222.81 63.25H225.87C228.09 63.25 229.815 62.605 231.045 61.315C232.305 59.995 232.935 57.895 232.935 55.015C232.935 52.105 232.305 50.005 231.045 48.715C229.815 47.395 228.09 46.735 225.87 46.735H222.81V63.25ZM246.681 70V39.985H267.966V46.735H255.726V51.595H266.211V58.345H255.681V63.25H267.966V70H246.681ZM273.575 70V39.985H289.19C292.76 39.985 295.595 40.795 297.695 42.415C299.795 44.035 300.845 46.51 300.845 49.84C300.845 50.95 300.635 52.09 300.215 53.26C299.825 54.43 299.195 55.51 298.325 56.5C297.455 57.46 296.36 58.165 295.04 58.615L302.51 70H290.9L285.725 60.415H282.575V70H273.575ZM282.575 54.07H288.065C288.845 54.07 289.535 53.8 290.135 53.26C290.735 52.69 291.035 51.685 291.035 50.245C291.035 49.015 290.735 48.13 290.135 47.59C289.535 47.02 288.845 46.735 288.065 46.735H282.575V54.07Z" fill="#FFFF00"/>
<path d="M39.6602 29.3818C39.6178 29.5426 39.5713 29.7288 39.5205 29.9404C39.4782 30.1436 39.457 30.3382 39.457 30.5244C39.457 30.6937 39.4824 30.8376 39.5332 30.9561C39.584 31.0745 39.694 31.1338 39.8633 31.1338C40.0918 31.1338 40.3626 31.0534 40.6758 30.8926C40.9974 30.7233 41.3402 30.5033 41.7041 30.2324C42.068 29.9531 42.4447 29.6357 42.834 29.2803C43.2233 28.9163 43.6084 28.5439 43.9893 28.1631C44.3701 27.7738 44.734 27.3844 45.0811 26.9951C45.4281 26.6058 45.737 26.2419 46.0078 25.9033L46.4775 27.5918C45.9189 28.3366 45.3434 29.0518 44.751 29.7373C44.1585 30.4229 43.5534 31.028 42.9355 31.5527C42.3262 32.0775 41.7126 32.4964 41.0947 32.8096C40.4769 33.1227 39.8633 33.2793 39.2539 33.2793C38.8984 33.2793 38.5938 33.2201 38.3398 33.1016C38.0944 32.9915 37.8955 32.8392 37.7432 32.6445C37.5908 32.4414 37.4766 32.2129 37.4004 31.959C37.3327 31.6966 37.2988 31.4215 37.2988 31.1338C37.2988 31.0238 37.3031 30.8672 37.3115 30.6641C37.32 30.4609 37.3285 30.2536 37.3369 30.042C37.3538 29.8219 37.3665 29.623 37.375 29.4453C37.3919 29.2676 37.4004 29.1533 37.4004 29.1025L32.8936 29.3818L30.7988 29.4072C30.4434 30.1774 30.0921 30.8587 29.7451 31.4512C29.5928 31.7051 29.432 31.9548 29.2627 32.2002C29.0934 32.4456 28.9242 32.6657 28.7549 32.8604C28.5856 33.0465 28.4163 33.1947 28.2471 33.3047C28.0778 33.4232 27.9128 33.4824 27.752 33.4824C27.498 33.4824 27.2907 33.4443 27.1299 33.3682C26.9691 33.292 26.8421 33.1947 26.749 33.0762C26.6559 32.9661 26.5882 32.8392 26.5459 32.6953C26.512 32.5514 26.4951 32.416 26.4951 32.2891C26.4951 32.069 26.5247 31.8532 26.584 31.6416C26.6432 31.4215 26.7279 31.2142 26.8379 31.0195L28.5137 28.2012C28.5898 28.0827 28.7422 27.7992 28.9707 27.3506C29.2077 26.902 29.5081 26.3519 29.8721 25.7002C30.2445 25.04 30.6719 24.3122 31.1543 23.5166C31.6367 22.721 32.1572 21.917 32.7158 21.1045C33.2829 20.2835 33.8796 19.488 34.5059 18.7178C35.1406 17.9476 35.7881 17.2663 36.4482 16.6738C37.1169 16.0729 37.7897 15.5947 38.4668 15.2393C39.1439 14.8753 39.8167 14.6934 40.4854 14.6934C41.1117 14.6934 41.7253 14.888 42.3262 15.2773C42.9355 15.6667 43.5153 16.3057 44.0654 17.1943C44.1247 17.3128 44.1543 17.4144 44.1543 17.499C44.1543 17.609 44.1247 17.7191 44.0654 17.8291C44.0062 17.9391 43.9258 18.0365 43.8242 18.1211C43.7311 18.2057 43.6253 18.2734 43.5068 18.3242C43.3883 18.375 43.2656 18.4004 43.1387 18.4004C42.9863 18.4004 42.8086 18.3665 42.6055 18.2988C42.4108 18.2311 42.2246 18.0872 42.0469 17.8672C41.7845 17.5625 41.5094 17.3424 41.2217 17.207C40.9424 17.0632 40.6631 16.9912 40.3838 16.9912C39.986 16.9912 39.5798 17.1055 39.165 17.334C38.7503 17.554 38.3314 17.8587 37.9082 18.248C37.4935 18.6289 37.0788 19.0732 36.6641 19.5811C36.2493 20.0804 35.8473 20.6094 35.458 21.168C35.0687 21.7266 34.6921 22.2979 34.3281 22.8818C33.9642 23.4658 33.6214 24.0244 33.2998 24.5576C32.9782 25.0908 32.682 25.5817 32.4111 26.0303C32.1488 26.4788 31.916 26.8555 31.7129 27.1602H34.0361L37.959 26.8682C38.0352 26.6989 38.1367 26.4704 38.2637 26.1826C38.3906 25.8864 38.5303 25.5563 38.6826 25.1924C38.8434 24.8285 39.0169 24.4349 39.2031 24.0117C39.3893 23.5885 39.5755 23.1654 39.7617 22.7422C39.9564 22.3105 40.1468 21.8874 40.333 21.4727C40.5192 21.0495 40.6927 20.6602 40.8535 20.3047C40.9635 19.9831 41.1243 19.7546 41.3359 19.6191C41.556 19.4837 41.7887 19.416 42.0342 19.416C42.1611 19.416 42.2881 19.4372 42.415 19.4795C42.542 19.5133 42.6562 19.5726 42.7578 19.6572C42.8678 19.7334 42.9567 19.835 43.0244 19.9619C43.0921 20.0804 43.1302 20.2243 43.1387 20.3936C43.1387 20.5544 43.0667 20.8294 42.9229 21.2188C42.7874 21.6081 42.6097 22.0651 42.3896 22.5898C42.1781 23.1146 41.9368 23.6859 41.666 24.3037C41.4036 24.9131 41.1413 25.5267 40.8789 26.1445C40.625 26.7539 40.388 27.3421 40.168 27.9092C39.9479 28.4678 39.7786 28.9587 39.6602 29.3818ZM46.1729 25.2939C46.3421 24.93 46.5537 24.6592 46.8076 24.4814C47.0615 24.3037 47.3112 24.2148 47.5566 24.2148C47.7598 24.2148 47.9417 24.291 48.1025 24.4434C48.2633 24.5872 48.3438 24.8031 48.3438 25.0908C48.3438 25.2008 48.3311 25.3193 48.3057 25.4463C48.2803 25.5732 48.2337 25.7087 48.166 25.8525C48.3522 25.6156 48.6188 25.3743 48.9658 25.1289C49.3128 24.875 49.6937 24.6507 50.1084 24.4561C50.5316 24.2529 50.9632 24.0879 51.4033 23.9609C51.8519 23.834 52.2751 23.7705 52.6729 23.7705C53.1214 23.7705 53.4938 23.8805 53.79 24.1006C54.0947 24.3122 54.2471 24.6761 54.2471 25.1924C54.2471 25.4971 54.2005 25.8145 54.1074 26.1445C54.0143 26.4746 53.8916 26.8047 53.7393 27.1348C53.5954 27.4648 53.4303 27.7907 53.2441 28.1123C53.0664 28.4255 52.8887 28.7217 52.7109 29.001C52.5332 29.2803 52.3682 29.5384 52.2158 29.7754C52.0719 30.0039 51.9577 30.1943 51.873 30.3467C51.763 30.4821 51.708 30.6387 51.708 30.8164C51.708 30.8841 51.7292 30.9434 51.7715 30.9941C51.8138 31.0449 51.8815 31.0703 51.9746 31.0703C52.0339 31.0703 52.1016 31.0661 52.1777 31.0576C52.2539 31.0407 52.347 30.9941 52.457 30.918C52.9141 30.7487 53.3796 30.5371 53.8535 30.2832C54.3359 30.0293 54.7972 29.7627 55.2373 29.4834C55.6774 29.1956 56.0794 28.9121 56.4434 28.6328C56.8158 28.3451 57.1247 28.0869 57.3701 27.8584C57.4378 27.7992 57.5055 27.7568 57.5732 27.7314C57.641 27.7061 57.7044 27.6934 57.7637 27.6934C57.9076 27.6934 58.0176 27.7484 58.0938 27.8584C58.1784 27.9684 58.2207 28.1081 58.2207 28.2773C58.2207 28.5397 58.1361 28.8317 57.9668 29.1533C57.806 29.4749 57.5479 29.7754 57.1924 30.0547C56.71 30.4017 56.2656 30.7191 55.8594 31.0068C55.4616 31.2946 55.0511 31.5654 54.6279 31.8193C54.2132 32.0648 53.7646 32.2975 53.2822 32.5176C52.8083 32.7292 52.2497 32.9281 51.6064 33.1143C51.3864 33.182 51.1833 33.2327 50.9971 33.2666C50.8193 33.3005 50.6543 33.3174 50.502 33.3174C50.0534 33.3174 49.7233 33.1947 49.5117 32.9492C49.3086 32.6953 49.207 32.3441 49.207 31.8955C49.207 31.8363 49.207 31.7812 49.207 31.7305C49.2155 31.6712 49.224 31.6077 49.2324 31.54C49.2493 31.2777 49.3171 30.9899 49.4355 30.6768C49.5625 30.3636 49.7106 30.042 49.8799 29.7119C50.0576 29.3818 50.2438 29.056 50.4385 28.7344C50.6331 28.4043 50.8109 28.0954 50.9717 27.8076C51.141 27.5114 51.2806 27.249 51.3906 27.0205C51.5007 26.792 51.5557 26.6058 51.5557 26.4619C51.5557 26.335 51.5176 26.2292 51.4414 26.1445C51.3737 26.0514 51.2679 26.0049 51.124 26.0049C50.5824 26.0049 50.0661 26.1657 49.5752 26.4873C49.0928 26.8089 48.64 27.2067 48.2168 27.6807C47.7936 28.1462 47.4043 28.6413 47.0488 29.166C46.6934 29.6908 46.3802 30.1605 46.1094 30.5752C45.9401 30.8545 45.7835 31.1549 45.6396 31.4766C45.5042 31.7897 45.3604 32.0859 45.208 32.3652C45.0557 32.6361 44.8822 32.8604 44.6875 33.0381C44.5013 33.2243 44.2643 33.3174 43.9766 33.3174C43.6803 33.3174 43.4476 33.2243 43.2783 33.0381C43.109 32.8519 43.0244 32.6234 43.0244 32.3525C43.0244 32.2087 43.0837 31.9759 43.2021 31.6543C43.3206 31.3327 43.473 30.9603 43.6592 30.5371C43.8454 30.1139 44.0527 29.6611 44.2812 29.1787C44.5182 28.6878 44.751 28.2054 44.9795 27.7314C45.2165 27.249 45.4408 26.7962 45.6523 26.373C45.8639 25.9499 46.0374 25.5902 46.1729 25.2939ZM61.0898 26.0049C60.6921 26.0049 60.307 26.1064 59.9346 26.3096C59.5706 26.5042 59.2448 26.7666 58.957 27.0967C58.6777 27.4183 58.4535 27.7865 58.2842 28.2012C58.1149 28.6074 58.0303 29.0264 58.0303 29.458C58.0303 29.6188 58.043 29.7965 58.0684 29.9912C58.0938 30.1774 58.1445 30.3551 58.2207 30.5244C58.3053 30.6852 58.4238 30.8206 58.5762 30.9307C58.7285 31.0407 58.9316 31.0957 59.1855 31.0957C59.5749 31.0957 59.9515 30.9941 60.3154 30.791C60.6878 30.5794 61.0179 30.3086 61.3057 29.9785C61.5934 29.64 61.8219 29.2591 61.9912 28.8359C62.1605 28.4128 62.2451 27.9854 62.2451 27.5537C62.2451 27.3844 62.2324 27.2109 62.207 27.0332C62.1901 26.847 62.1393 26.6777 62.0547 26.5254C61.9785 26.373 61.8643 26.2503 61.7119 26.1572C61.5596 26.0557 61.3522 26.0049 61.0898 26.0049ZM61.75 23.7705C62.0716 23.7705 62.4144 23.8128 62.7783 23.8975C63.1507 23.9821 63.4935 24.126 63.8066 24.3291C64.1198 24.5322 64.3779 24.8031 64.5811 25.1416C64.7926 25.4717 64.8984 25.8822 64.8984 26.373C64.8984 26.627 64.8646 26.9189 64.7969 27.249C64.7292 27.5706 64.6276 27.9092 64.4922 28.2646C64.5768 28.3662 64.6742 28.4382 64.7842 28.4805C64.8942 28.5228 65.0127 28.5439 65.1396 28.5439C65.3174 28.5439 65.512 28.4932 65.7236 28.3916C65.9437 28.29 66.168 28.1589 66.3965 27.998C66.625 27.8372 66.8535 27.6553 67.082 27.4521C67.3105 27.249 67.5264 27.0459 67.7295 26.8428C67.9326 26.6396 68.1146 26.4492 68.2754 26.2715C68.4447 26.0853 68.5843 25.9287 68.6943 25.8018C68.7536 25.7425 68.8255 25.7129 68.9102 25.7129C69.0286 25.7129 69.1344 25.7764 69.2275 25.9033C69.3206 26.0218 69.3672 26.1911 69.3672 26.4111C69.3672 26.6312 69.2995 26.8851 69.1641 27.1729C69.0371 27.4606 68.7959 27.7611 68.4404 28.0742C68.2373 28.2943 68.0046 28.5482 67.7422 28.8359C67.4798 29.1237 67.2005 29.3945 66.9043 29.6484C66.6081 29.9023 66.2992 30.1182 65.9775 30.2959C65.6559 30.4736 65.3343 30.5625 65.0127 30.5625C64.7926 30.5625 64.5768 30.5286 64.3652 30.4609C64.1621 30.3932 63.9548 30.2832 63.7432 30.1309C63.4385 30.6048 63.0915 31.0365 62.7021 31.4258C62.3128 31.8151 61.877 32.1494 61.3945 32.4287C60.9206 32.708 60.4043 32.9238 59.8457 33.0762C59.2956 33.237 58.7074 33.3174 58.0811 33.3174C57.8441 33.3174 57.569 33.2708 57.2559 33.1777C56.9427 33.0846 56.6423 32.9323 56.3545 32.7207C56.0752 32.5007 55.8382 32.2171 55.6436 31.8701C55.4489 31.5231 55.3516 31.0999 55.3516 30.6006C55.3516 30.262 55.4066 29.8558 55.5166 29.3818C55.6266 28.9079 55.7917 28.4212 56.0117 27.9219C56.2402 27.4141 56.5238 26.9147 56.8623 26.4238C57.2093 25.9245 57.6198 25.4801 58.0938 25.0908C58.5677 24.693 59.1094 24.3757 59.7188 24.1387C60.3281 23.8932 61.0052 23.7705 61.75 23.7705ZM70.7764 25.9414C70.4632 26.5508 70.167 27.1475 69.8877 27.7314C69.6084 28.307 69.346 28.8402 69.1006 29.3311C68.999 29.5342 68.8975 29.7712 68.7959 30.042C68.7028 30.3044 68.6562 30.5371 68.6562 30.7402C68.6562 30.8587 68.6816 30.9518 68.7324 31.0195C68.7917 31.0872 68.8848 31.1211 69.0117 31.1211C69.1895 31.1211 69.4137 31.0703 69.6846 30.9688C69.9554 30.8587 70.2474 30.7191 70.5605 30.5498C70.8737 30.3721 71.2038 30.1732 71.5508 29.9531C71.8978 29.7246 72.2363 29.4919 72.5664 29.2549C72.9049 29.0094 73.2266 28.7682 73.5312 28.5312C73.8359 28.2858 74.1068 28.0615 74.3438 27.8584C74.4792 27.7653 74.6061 27.7188 74.7246 27.7188C74.8685 27.7188 74.987 27.7822 75.0801 27.9092C75.1732 28.0361 75.2197 28.1969 75.2197 28.3916C75.2197 28.5863 75.1732 28.7852 75.0801 28.9883C74.987 29.1914 74.8177 29.3903 74.5723 29.585C74.0221 30.0843 73.4635 30.5583 72.8965 31.0068C72.3379 31.4554 71.7793 31.8532 71.2207 32.2002C70.6706 32.5387 70.1247 32.8096 69.583 33.0127C69.0413 33.2158 68.5166 33.3174 68.0088 33.3174C67.6702 33.3174 67.3867 33.2708 67.1582 33.1777C66.9297 33.0931 66.7435 32.9746 66.5996 32.8223C66.4642 32.6615 66.3669 32.4795 66.3076 32.2764C66.2484 32.0648 66.2188 31.8405 66.2188 31.6035C66.2188 31.1803 66.2907 30.7402 66.4346 30.2832C66.5785 29.8262 66.7393 29.4157 66.917 29.0518C67.1709 28.527 67.4206 28.0065 67.666 27.4902C67.9199 26.974 68.1654 26.4788 68.4023 26.0049H67.8564C67.3825 26.0049 67.0566 25.9287 66.8789 25.7764C66.7012 25.624 66.6123 25.4505 66.6123 25.2559C66.6123 25.1712 66.6377 25.0697 66.6885 24.9512C66.7477 24.8242 66.8281 24.71 66.9297 24.6084C67.0397 24.4984 67.1709 24.4053 67.3232 24.3291C67.4756 24.2529 67.6491 24.2148 67.8438 24.2148H69.2148L71.8936 18.8955C72.0628 18.5739 72.2702 18.3454 72.5156 18.21C72.7695 18.0661 73.0319 17.9941 73.3027 17.9941C73.5566 17.9941 73.7894 18.0618 74.001 18.1973C74.2126 18.3327 74.3184 18.557 74.3184 18.8701C74.3184 19.0309 74.2803 19.196 74.2041 19.3652C74.1364 19.526 74.0433 19.7165 73.9248 19.9365C73.8486 20.0804 73.7555 20.2539 73.6455 20.457C73.5355 20.6517 73.417 20.8633 73.29 21.0918C73.1715 21.3118 73.0446 21.5446 72.9092 21.79C72.7822 22.0355 72.6553 22.2725 72.5283 22.501C72.2406 23.0426 71.9359 23.6139 71.6143 24.2148H75.7529C75.9561 24.2148 76.1423 24.2275 76.3115 24.2529C76.4808 24.2699 76.6247 24.3122 76.7432 24.3799C76.8701 24.4391 76.9674 24.5238 77.0352 24.6338C77.1029 24.7438 77.1367 24.8919 77.1367 25.0781C77.1367 25.1712 77.1198 25.2643 77.0859 25.3574C77.0605 25.4505 77.0055 25.5352 76.9209 25.6113C76.8447 25.6875 76.7347 25.751 76.5908 25.8018C76.4554 25.8525 76.2777 25.8864 76.0576 25.9033L70.7764 25.9414ZM72.4775 30.9941C72.6807 30.5625 72.9134 30.0843 73.1758 29.5596C73.4382 29.0264 73.7005 28.5016 73.9629 27.9854C74.2337 27.4606 74.4876 26.9655 74.7246 26.5C74.9616 26.026 75.1605 25.624 75.3213 25.2939L79.5107 17.0547C79.5615 16.9447 79.6377 16.8389 79.7393 16.7373C79.8493 16.6357 79.972 16.5469 80.1074 16.4707C80.2428 16.3861 80.3867 16.3226 80.5391 16.2803C80.6914 16.2295 80.8438 16.2041 80.9961 16.2041C81.3685 16.2041 81.6266 16.276 81.7705 16.4199C81.9144 16.5553 81.9863 16.7246 81.9863 16.9277C81.9863 17.1139 81.9398 17.3128 81.8467 17.5244C81.7536 17.7275 81.6478 17.918 81.5293 18.0957C81.1569 18.7305 80.7972 19.3737 80.4502 20.0254C80.1117 20.6686 79.7689 21.3203 79.4219 21.9805C79.0833 22.6322 78.7406 23.2839 78.3936 23.9355C78.0465 24.5788 77.6826 25.2178 77.3018 25.8525C77.5387 25.624 77.7884 25.387 78.0508 25.1416C78.3216 24.8962 78.6136 24.6719 78.9268 24.4688C79.2399 24.2656 79.5827 24.1006 79.9551 23.9736C80.3275 23.8382 80.7422 23.7705 81.1992 23.7705C81.4701 23.7705 81.7282 23.7959 81.9736 23.8467C82.2191 23.8975 82.4349 23.9821 82.6211 24.1006C82.8073 24.2106 82.9554 24.3672 83.0654 24.5703C83.1755 24.765 83.2305 25.0062 83.2305 25.2939C83.2305 25.6748 83.1712 26.026 83.0527 26.3477C82.9427 26.6608 82.7988 26.9613 82.6211 27.249C82.4434 27.5283 82.2487 27.7992 82.0371 28.0615C81.8255 28.3154 81.6224 28.5778 81.4277 28.8486C81.2415 29.111 81.0765 29.3861 80.9326 29.6738C80.7972 29.9616 80.7126 30.2747 80.6787 30.6133C80.6787 30.6302 80.6745 30.6471 80.666 30.6641C80.666 30.681 80.666 30.6979 80.666 30.7148C80.666 30.8841 80.721 30.9899 80.8311 31.0322C80.9495 31.0745 81.0977 31.0957 81.2754 31.0957C81.5039 31.0957 81.7493 31.0534 82.0117 30.9688C82.2741 30.8757 82.5365 30.7572 82.7988 30.6133C83.0697 30.4609 83.3363 30.2917 83.5986 30.1055C83.8695 29.9193 84.1234 29.7288 84.3604 29.5342C84.6058 29.3395 84.8301 29.1533 85.0332 28.9756C85.2363 28.7894 85.4098 28.6286 85.5537 28.4932C85.6299 28.4255 85.7103 28.3747 85.7949 28.3408C85.8796 28.307 85.96 28.29 86.0361 28.29C86.1885 28.29 86.3154 28.3493 86.417 28.4678C86.527 28.5778 86.582 28.7301 86.582 28.9248C86.582 29.1025 86.5186 29.3057 86.3916 29.5342C86.2731 29.7627 86.0658 29.9912 85.7695 30.2197C85.304 30.626 84.8301 31.0153 84.3477 31.3877C83.8652 31.7601 83.3786 32.0902 82.8877 32.3779C82.3968 32.6657 81.9059 32.8942 81.415 33.0635C80.9326 33.2327 80.4587 33.3174 79.9932 33.3174C79.3923 33.3174 78.9098 33.182 78.5459 32.9111C78.182 32.6318 78 32.196 78 31.6035C78 31.1719 78.0719 30.7656 78.2158 30.3848C78.3682 29.9954 78.5501 29.623 78.7617 29.2676C78.9818 28.9036 79.2145 28.5566 79.46 28.2266C79.7054 27.888 79.9212 27.5579 80.1074 27.2363C80.209 27.0924 80.2852 26.9613 80.3359 26.8428C80.3952 26.7158 80.4248 26.5804 80.4248 26.4365C80.4248 26.3096 80.391 26.208 80.3232 26.1318C80.2555 26.0472 80.1497 26.0049 80.0059 26.0049C79.5065 26.0049 79.0452 26.1276 78.6221 26.373C78.1989 26.6185 77.8096 26.9316 77.4541 27.3125C77.0986 27.6934 76.7686 28.1123 76.4639 28.5693C76.1592 29.0179 75.8757 29.4495 75.6133 29.8643C75.4948 30.0505 75.3721 30.2663 75.2451 30.5117C75.1266 30.7487 74.9997 30.9941 74.8643 31.248C74.7373 31.502 74.6019 31.7559 74.458 32.0098C74.3141 32.2552 74.1618 32.4753 74.001 32.6699C73.8486 32.8646 73.6836 33.0212 73.5059 33.1396C73.3366 33.2581 73.1589 33.3174 72.9727 33.3174C72.6764 33.3174 72.4479 33.2285 72.2871 33.0508C72.1263 32.8815 72.0459 32.6657 72.0459 32.4033C72.0459 32.2087 72.0798 32.0055 72.1475 31.7939C72.2152 31.5739 72.3252 31.3073 72.4775 30.9941ZM90.3398 25.5098C90.2975 25.5013 90.2594 25.4971 90.2256 25.4971C90.1917 25.4971 90.1536 25.4971 90.1113 25.4971C89.7897 25.4971 89.4893 25.5605 89.21 25.6875C88.9307 25.8145 88.6725 25.9837 88.4355 26.1953C88.207 26.3984 87.9997 26.6312 87.8135 26.8936C87.6357 27.1559 87.4749 27.4183 87.3311 27.6807C87.1872 27.9346 87.0645 28.18 86.9629 28.417C86.8698 28.654 86.7979 28.8529 86.7471 29.0137C87.0433 28.8613 87.348 28.6878 87.6611 28.4932C87.9827 28.2985 88.2832 28.1123 88.5625 27.9346C88.8418 27.7568 89.083 27.596 89.2861 27.4521C89.4977 27.3083 89.6458 27.2109 89.7305 27.1602C90.1113 26.9232 90.3737 26.7031 90.5176 26.5C90.6615 26.2884 90.7334 26.1064 90.7334 25.9541C90.7334 25.8271 90.6911 25.7256 90.6064 25.6494C90.5303 25.5732 90.4414 25.5267 90.3398 25.5098ZM90.7969 23.7578C91.4993 23.7578 92.0241 23.9271 92.3711 24.2656C92.7181 24.6042 92.8916 25.0739 92.8916 25.6748C92.8916 26.0303 92.7985 26.4027 92.6123 26.792C92.4261 27.1813 92.1045 27.5791 91.6475 27.9854C91.1904 28.3831 90.5768 28.7936 89.8066 29.2168C89.0449 29.6315 88.0885 30.0505 86.9375 30.4736C86.9798 30.7191 87.111 30.9137 87.3311 31.0576C87.5511 31.193 87.8431 31.2607 88.207 31.2607C88.5964 31.2607 89.0111 31.2057 89.4512 31.0957C89.8997 30.9772 90.3398 30.8291 90.7715 30.6514C91.2116 30.4736 91.639 30.2832 92.0537 30.0801C92.4684 29.8685 92.8408 29.6696 93.1709 29.4834C93.5094 29.2972 93.7887 29.1364 94.0088 29.001C94.2373 28.8656 94.3896 28.7809 94.4658 28.7471C94.542 28.6963 94.6097 28.6667 94.6689 28.6582C94.7367 28.6497 94.7959 28.6455 94.8467 28.6455C94.9482 28.6455 95.0329 28.6709 95.1006 28.7217C95.1683 28.764 95.2233 28.819 95.2656 28.8867C95.3164 28.946 95.3503 29.0137 95.3672 29.0898C95.3841 29.1576 95.3926 29.2168 95.3926 29.2676C95.3926 29.3438 95.3841 29.4368 95.3672 29.5469C95.3503 29.6484 95.2868 29.7669 95.1768 29.9023C95.1344 29.9447 94.9906 30.0589 94.7451 30.2451C94.5081 30.4313 94.1992 30.6514 93.8184 30.9053C93.4375 31.1592 92.9932 31.43 92.4854 31.7178C91.986 31.9971 91.4528 32.2552 90.8857 32.4922C90.3271 32.7292 89.7432 32.9238 89.1338 33.0762C88.5244 33.237 87.9235 33.3174 87.3311 33.3174C86.8232 33.3174 86.3704 33.2201 85.9727 33.0254C85.5833 32.8307 85.249 32.5684 84.9697 32.2383C84.6989 31.9082 84.4915 31.5273 84.3477 31.0957C84.2038 30.6641 84.1318 30.2113 84.1318 29.7373C84.1318 29.3734 84.2038 28.9756 84.3477 28.5439C84.4915 28.1038 84.6989 27.6637 84.9697 27.2236C85.2406 26.7835 85.5706 26.3561 85.96 25.9414C86.3577 25.5182 86.8021 25.1458 87.293 24.8242C87.7839 24.5026 88.3213 24.2445 88.9053 24.0498C89.4977 23.8551 90.1283 23.7578 90.7969 23.7578ZM98.4648 25.5986C98.7949 25.3955 99.1335 25.2093 99.4805 25.04C99.8359 24.8708 100.179 24.7269 100.509 24.6084C100.839 24.4814 101.152 24.3841 101.448 24.3164C101.753 24.2402 102.024 24.2021 102.261 24.2021C102.642 24.2021 102.934 24.2952 103.137 24.4814C103.348 24.6592 103.454 24.9639 103.454 25.3955C103.454 25.4886 103.45 25.5902 103.441 25.7002C103.433 25.8018 103.416 25.9118 103.391 26.0303C103.348 26.2503 103.221 26.5085 103.01 26.8047C102.798 27.1009 102.549 27.4098 102.261 27.7314C101.981 28.0531 101.677 28.3789 101.347 28.709C101.025 29.0306 100.725 29.3311 100.445 29.6104C100.174 29.8812 99.946 30.1182 99.7598 30.3213C99.582 30.5244 99.4932 30.6641 99.4932 30.7402C99.4932 30.8079 99.4974 30.8545 99.5059 30.8799C99.5143 30.9053 99.5524 30.918 99.6201 30.918C100.077 30.7233 100.585 30.4906 101.144 30.2197C101.711 29.9404 102.273 29.6569 102.832 29.3691C103.391 29.0814 103.92 28.8021 104.419 28.5312C104.918 28.252 105.341 28.0107 105.688 27.8076C105.765 27.7653 105.841 27.7314 105.917 27.7061C106.002 27.6722 106.078 27.6553 106.146 27.6553C106.298 27.6553 106.425 27.7061 106.526 27.8076C106.628 27.9092 106.679 28.0446 106.679 28.2139C106.679 28.4085 106.594 28.6328 106.425 28.8867C106.264 29.1322 105.989 29.3903 105.6 29.6611C105.303 29.8473 104.969 30.0589 104.597 30.2959C104.233 30.5244 103.848 30.7656 103.441 31.0195C103.044 31.265 102.637 31.5062 102.223 31.7432C101.816 31.9801 101.423 32.1917 101.042 32.3779C100.661 32.5641 100.301 32.7165 99.9629 32.835C99.6328 32.945 99.3451 33 99.0996 33C98.5156 33 98.0755 32.8604 97.7793 32.5811C97.4915 32.3018 97.3477 31.9421 97.3477 31.502C97.3477 31.4342 97.3519 31.3835 97.3604 31.3496C97.4196 30.9772 97.5296 30.6175 97.6904 30.2705C97.8512 29.9235 98.0332 29.5934 98.2363 29.2803C98.4395 28.9671 98.651 28.6709 98.8711 28.3916C99.0911 28.1038 99.29 27.8372 99.4678 27.5918C99.654 27.3379 99.8063 27.1051 99.9248 26.8936C100.043 26.682 100.103 26.4873 100.103 26.3096C100.103 26.2673 100.094 26.2249 100.077 26.1826C100.06 26.1403 100.022 26.1191 99.9629 26.1191C99.8613 26.1191 99.6921 26.1572 99.4551 26.2334C99.2266 26.3096 98.9811 26.4111 98.7188 26.5381C98.4564 26.665 98.2067 26.8132 97.9697 26.9824C97.7327 27.1432 97.5635 27.3167 97.4619 27.5029C97.3265 27.7399 97.1699 28.0404 96.9922 28.4043C96.8145 28.7682 96.6283 29.1491 96.4336 29.5469C96.2474 29.9447 96.0654 30.3382 95.8877 30.7275C95.71 31.1169 95.5576 31.4512 95.4307 31.7305C95.3291 31.9759 95.1937 32.196 95.0244 32.3906C94.8636 32.5853 94.6859 32.7503 94.4912 32.8857C94.2965 33.0212 94.0977 33.127 93.8945 33.2031C93.6914 33.2793 93.5052 33.3174 93.3359 33.3174C93.1413 33.3174 92.9847 33.2666 92.8662 33.165C92.7562 33.0635 92.7012 32.8984 92.7012 32.6699C92.7012 32.5768 92.7139 32.4626 92.7393 32.3271C92.7731 32.1833 92.8366 32.0267 92.9297 31.8574C93.082 31.5697 93.2344 31.2565 93.3867 30.918C93.5475 30.5794 93.7295 30.1943 93.9326 29.7627C94.1357 29.3226 94.3685 28.8232 94.6309 28.2646C94.9017 27.6976 95.2191 27.0459 95.583 26.3096C95.4645 26.208 95.363 26.0853 95.2783 25.9414C95.2021 25.7891 95.1641 25.6029 95.1641 25.3828C95.1641 25.1797 95.2064 25.0062 95.291 24.8623C95.3757 24.71 95.4899 24.5872 95.6338 24.4941C95.7777 24.401 95.9427 24.3333 96.1289 24.291C96.3236 24.2402 96.5267 24.2148 96.7383 24.2148C96.9583 24.2148 97.1784 24.236 97.3984 24.2783C97.6185 24.3122 97.8132 24.3672 97.9824 24.4434C98.1602 24.5195 98.304 24.6126 98.4141 24.7227C98.5241 24.8327 98.5791 24.9596 98.5791 25.1035C98.5791 25.1289 98.5706 25.1628 98.5537 25.2051C98.5368 25.2474 98.5156 25.2939 98.4902 25.3447C98.4733 25.3955 98.4564 25.4421 98.4395 25.4844C98.4225 25.5267 98.4141 25.5605 98.4141 25.5859C98.4141 25.6029 98.4183 25.6113 98.4268 25.6113H98.4395L98.4648 25.5986ZM125.315 27.4775C125.282 27.5199 125.218 27.6553 125.125 27.8838C125.04 28.1038 124.935 28.3831 124.808 28.7217C124.681 29.0602 124.541 29.4411 124.389 29.8643C124.245 30.279 124.092 30.7064 123.932 31.1465C123.779 31.5781 123.631 32.0055 123.487 32.4287C123.343 32.8434 123.212 33.2201 123.094 33.5586C122.984 33.8971 122.891 34.1807 122.814 34.4092C122.738 34.6377 122.692 34.7731 122.675 34.8154C122.632 34.9508 122.565 35.099 122.472 35.2598C122.379 35.429 122.269 35.5856 122.142 35.7295C122.015 35.8818 121.875 36.0046 121.723 36.0977C121.57 36.1992 121.414 36.25 121.253 36.25C120.982 36.25 120.783 36.1738 120.656 36.0215C120.538 35.8691 120.479 35.5898 120.479 35.1836C120.479 35.1243 120.479 35.0651 120.479 35.0059C120.479 34.9466 120.483 34.8831 120.491 34.8154C120.5 34.68 120.563 34.4261 120.682 34.0537C120.8 33.6813 120.94 33.2624 121.101 32.7969C121.27 32.3229 121.448 31.8363 121.634 31.3369C121.828 30.8291 122.002 30.3763 122.154 29.9785C121.706 30.4017 121.219 30.8249 120.694 31.248C120.17 31.6628 119.632 32.0394 119.082 32.3779C118.532 32.708 117.978 32.9788 117.419 33.1904C116.86 33.402 116.323 33.5078 115.807 33.5078C115.214 33.5078 114.702 33.3978 114.271 33.1777C113.847 32.9577 113.496 32.6699 113.217 32.3145C112.938 31.959 112.73 31.557 112.595 31.1084C112.459 30.6598 112.392 30.2113 112.392 29.7627C112.392 29.7035 112.392 29.6484 112.392 29.5977C112.392 29.5469 112.396 29.4961 112.404 29.4453C112.455 28.6328 112.59 27.7992 112.811 26.9443C113.039 26.0895 113.335 25.2389 113.699 24.3926C114.063 23.5462 114.482 22.721 114.956 21.917C115.438 21.1045 115.959 20.3385 116.518 19.6191C117.085 18.8997 117.686 18.2396 118.32 17.6387C118.955 17.0293 119.607 16.5088 120.275 16.0771C120.944 15.637 121.617 15.2943 122.294 15.0488C122.979 14.8034 123.657 14.6807 124.325 14.6807C125.095 14.6807 125.84 14.8584 126.56 15.2139C127.279 15.5693 127.952 16.1449 128.578 16.9404C128.722 17.1182 128.811 17.3001 128.845 17.4863C128.887 17.6641 128.908 17.8333 128.908 17.9941C128.908 18.375 128.798 18.6755 128.578 18.8955C128.367 19.1156 128.113 19.2256 127.816 19.2256C127.546 19.2256 127.292 19.1071 127.055 18.8701C126.826 18.6247 126.568 18.2777 126.28 17.8291C126.009 17.4229 125.709 17.1309 125.379 16.9531C125.057 16.7669 124.706 16.6738 124.325 16.6738C123.733 16.6738 123.098 16.8812 122.421 17.2959C121.752 17.7106 121.088 18.2607 120.428 18.9463C119.768 19.6234 119.133 20.402 118.523 21.2822C117.923 22.154 117.389 23.0511 116.924 23.9736C116.458 24.8877 116.086 25.7933 115.807 26.6904C115.536 27.5791 115.4 28.3789 115.4 29.0898C115.4 29.3268 115.417 29.5723 115.451 29.8262C115.493 30.0716 115.565 30.2959 115.667 30.499C115.777 30.7021 115.921 30.8714 116.099 31.0068C116.285 31.1338 116.518 31.1973 116.797 31.1973C117.11 31.1973 117.465 31.1084 117.863 30.9307C118.261 30.7529 118.672 30.5202 119.095 30.2324C119.526 29.9447 119.958 29.6188 120.39 29.2549C120.821 28.891 121.223 28.5228 121.596 28.1504C121.968 27.778 122.298 27.4225 122.586 27.084C122.874 26.737 123.09 26.4365 123.233 26.1826L124.414 23.1992C124.558 22.8776 124.744 22.6491 124.973 22.5137C125.21 22.3783 125.451 22.3105 125.696 22.3105C125.815 22.3105 125.933 22.3275 126.052 22.3613C126.17 22.3952 126.276 22.4502 126.369 22.5264C126.462 22.5941 126.534 22.6872 126.585 22.8057C126.644 22.9157 126.674 23.0469 126.674 23.1992C126.674 23.6055 126.632 23.9863 126.547 24.3418C126.462 24.6973 126.352 25.0443 126.217 25.3828C126.09 25.7214 125.946 26.0641 125.785 26.4111C125.624 26.7497 125.468 27.1051 125.315 27.4775ZM133.047 25.5098C133.005 25.5013 132.966 25.4971 132.933 25.4971C132.899 25.4971 132.861 25.4971 132.818 25.4971C132.497 25.4971 132.196 25.5605 131.917 25.6875C131.638 25.8145 131.38 25.9837 131.143 26.1953C130.914 26.3984 130.707 26.6312 130.521 26.8936C130.343 27.1559 130.182 27.4183 130.038 27.6807C129.894 27.9346 129.771 28.18 129.67 28.417C129.577 28.654 129.505 28.8529 129.454 29.0137C129.75 28.8613 130.055 28.6878 130.368 28.4932C130.69 28.2985 130.99 28.1123 131.27 27.9346C131.549 27.7568 131.79 27.596 131.993 27.4521C132.205 27.3083 132.353 27.2109 132.438 27.1602C132.818 26.9232 133.081 26.7031 133.225 26.5C133.368 26.2884 133.44 26.1064 133.44 25.9541C133.44 25.8271 133.398 25.7256 133.313 25.6494C133.237 25.5732 133.148 25.5267 133.047 25.5098ZM133.504 23.7578C134.206 23.7578 134.731 23.9271 135.078 24.2656C135.425 24.6042 135.599 25.0739 135.599 25.6748C135.599 26.0303 135.506 26.4027 135.319 26.792C135.133 27.1813 134.812 27.5791 134.354 27.9854C133.897 28.3831 133.284 28.7936 132.514 29.2168C131.752 29.6315 130.796 30.0505 129.645 30.4736C129.687 30.7191 129.818 30.9137 130.038 31.0576C130.258 31.193 130.55 31.2607 130.914 31.2607C131.303 31.2607 131.718 31.2057 132.158 31.0957C132.607 30.9772 133.047 30.8291 133.479 30.6514C133.919 30.4736 134.346 30.2832 134.761 30.0801C135.175 29.8685 135.548 29.6696 135.878 29.4834C136.216 29.2972 136.496 29.1364 136.716 29.001C136.944 28.8656 137.097 28.7809 137.173 28.7471C137.249 28.6963 137.317 28.6667 137.376 28.6582C137.444 28.6497 137.503 28.6455 137.554 28.6455C137.655 28.6455 137.74 28.6709 137.808 28.7217C137.875 28.764 137.93 28.819 137.973 28.8867C138.023 28.946 138.057 29.0137 138.074 29.0898C138.091 29.1576 138.1 29.2168 138.1 29.2676C138.1 29.3438 138.091 29.4368 138.074 29.5469C138.057 29.6484 137.994 29.7669 137.884 29.9023C137.841 29.9447 137.698 30.0589 137.452 30.2451C137.215 30.4313 136.906 30.6514 136.525 30.9053C136.145 31.1592 135.7 31.43 135.192 31.7178C134.693 31.9971 134.16 32.2552 133.593 32.4922C133.034 32.7292 132.45 32.9238 131.841 33.0762C131.231 33.237 130.631 33.3174 130.038 33.3174C129.53 33.3174 129.077 33.2201 128.68 33.0254C128.29 32.8307 127.956 32.5684 127.677 32.2383C127.406 31.9082 127.199 31.5273 127.055 31.0957C126.911 30.6641 126.839 30.2113 126.839 29.7373C126.839 29.3734 126.911 28.9756 127.055 28.5439C127.199 28.1038 127.406 27.6637 127.677 27.2236C127.948 26.7835 128.278 26.3561 128.667 25.9414C129.065 25.5182 129.509 25.1458 130 24.8242C130.491 24.5026 131.028 24.2445 131.612 24.0498C132.205 23.8551 132.835 23.7578 133.504 23.7578ZM138.772 25.2939C138.942 24.93 139.153 24.6592 139.407 24.4814C139.661 24.3037 139.911 24.2148 140.156 24.2148C140.359 24.2148 140.541 24.291 140.702 24.4434C140.863 24.5872 140.943 24.8031 140.943 25.0908C140.943 25.2008 140.931 25.3193 140.905 25.4463C140.88 25.5732 140.833 25.7087 140.766 25.8525C140.952 25.6156 141.218 25.3743 141.565 25.1289C141.912 24.875 142.293 24.6507 142.708 24.4561C143.131 24.2529 143.563 24.0879 144.003 23.9609C144.451 23.834 144.875 23.7705 145.272 23.7705C145.721 23.7705 146.093 23.8805 146.39 24.1006C146.694 24.3122 146.847 24.6761 146.847 25.1924C146.847 25.4971 146.8 25.8145 146.707 26.1445C146.614 26.4746 146.491 26.8047 146.339 27.1348C146.195 27.4648 146.03 27.7907 145.844 28.1123C145.666 28.4255 145.488 28.7217 145.311 29.001C145.133 29.2803 144.968 29.5384 144.815 29.7754C144.672 30.0039 144.557 30.1943 144.473 30.3467C144.363 30.4821 144.308 30.6387 144.308 30.8164C144.308 30.8841 144.329 30.9434 144.371 30.9941C144.413 31.0449 144.481 31.0703 144.574 31.0703C144.633 31.0703 144.701 31.0661 144.777 31.0576C144.854 31.0407 144.947 30.9941 145.057 30.918C145.514 30.7487 145.979 30.5371 146.453 30.2832C146.936 30.0293 147.397 29.7627 147.837 29.4834C148.277 29.1956 148.679 28.9121 149.043 28.6328C149.415 28.3451 149.724 28.0869 149.97 27.8584C150.037 27.7992 150.105 27.7568 150.173 27.7314C150.241 27.7061 150.304 27.6934 150.363 27.6934C150.507 27.6934 150.617 27.7484 150.693 27.8584C150.778 27.9684 150.82 28.1081 150.82 28.2773C150.82 28.5397 150.736 28.8317 150.566 29.1533C150.406 29.4749 150.147 29.7754 149.792 30.0547C149.31 30.4017 148.865 30.7191 148.459 31.0068C148.061 31.2946 147.651 31.5654 147.228 31.8193C146.813 32.0648 146.364 32.2975 145.882 32.5176C145.408 32.7292 144.849 32.9281 144.206 33.1143C143.986 33.182 143.783 33.2327 143.597 33.2666C143.419 33.3005 143.254 33.3174 143.102 33.3174C142.653 33.3174 142.323 33.1947 142.111 32.9492C141.908 32.6953 141.807 32.3441 141.807 31.8955C141.807 31.8363 141.807 31.7812 141.807 31.7305C141.815 31.6712 141.824 31.6077 141.832 31.54C141.849 31.2777 141.917 30.9899 142.035 30.6768C142.162 30.3636 142.31 30.042 142.479 29.7119C142.657 29.3818 142.843 29.056 143.038 28.7344C143.233 28.4043 143.41 28.0954 143.571 27.8076C143.741 27.5114 143.88 27.249 143.99 27.0205C144.1 26.792 144.155 26.6058 144.155 26.4619C144.155 26.335 144.117 26.2292 144.041 26.1445C143.973 26.0514 143.868 26.0049 143.724 26.0049C143.182 26.0049 142.666 26.1657 142.175 26.4873C141.692 26.8089 141.24 27.2067 140.816 27.6807C140.393 28.1462 140.004 28.6413 139.648 29.166C139.293 29.6908 138.98 30.1605 138.709 30.5752C138.54 30.8545 138.383 31.1549 138.239 31.4766C138.104 31.7897 137.96 32.0859 137.808 32.3652C137.655 32.6361 137.482 32.8604 137.287 33.0381C137.101 33.2243 136.864 33.3174 136.576 33.3174C136.28 33.3174 136.047 33.2243 135.878 33.0381C135.709 32.8519 135.624 32.6234 135.624 32.3525C135.624 32.2087 135.683 31.9759 135.802 31.6543C135.92 31.3327 136.073 30.9603 136.259 30.5371C136.445 30.1139 136.652 29.6611 136.881 29.1787C137.118 28.6878 137.351 28.2054 137.579 27.7314C137.816 27.249 138.04 26.7962 138.252 26.373C138.464 25.9499 138.637 25.5902 138.772 25.2939ZM154.07 25.5098C154.028 25.5013 153.99 25.4971 153.956 25.4971C153.922 25.4971 153.884 25.4971 153.842 25.4971C153.52 25.4971 153.22 25.5605 152.94 25.6875C152.661 25.8145 152.403 25.9837 152.166 26.1953C151.938 26.3984 151.73 26.6312 151.544 26.8936C151.366 27.1559 151.205 27.4183 151.062 27.6807C150.918 27.9346 150.795 28.18 150.693 28.417C150.6 28.654 150.528 28.8529 150.478 29.0137C150.774 28.8613 151.078 28.6878 151.392 28.4932C151.713 28.2985 152.014 28.1123 152.293 27.9346C152.572 27.7568 152.813 27.596 153.017 27.4521C153.228 27.3083 153.376 27.2109 153.461 27.1602C153.842 26.9232 154.104 26.7031 154.248 26.5C154.392 26.2884 154.464 26.1064 154.464 25.9541C154.464 25.8271 154.422 25.7256 154.337 25.6494C154.261 25.5732 154.172 25.5267 154.07 25.5098ZM154.527 23.7578C155.23 23.7578 155.755 23.9271 156.102 24.2656C156.449 24.6042 156.622 25.0739 156.622 25.6748C156.622 26.0303 156.529 26.4027 156.343 26.792C156.157 27.1813 155.835 27.5791 155.378 27.9854C154.921 28.3831 154.307 28.7936 153.537 29.2168C152.775 29.6315 151.819 30.0505 150.668 30.4736C150.71 30.7191 150.841 30.9137 151.062 31.0576C151.282 31.193 151.574 31.2607 151.938 31.2607C152.327 31.2607 152.742 31.2057 153.182 31.0957C153.63 30.9772 154.07 30.8291 154.502 30.6514C154.942 30.4736 155.369 30.2832 155.784 30.0801C156.199 29.8685 156.571 29.6696 156.901 29.4834C157.24 29.2972 157.519 29.1364 157.739 29.001C157.968 28.8656 158.12 28.7809 158.196 28.7471C158.272 28.6963 158.34 28.6667 158.399 28.6582C158.467 28.6497 158.526 28.6455 158.577 28.6455C158.679 28.6455 158.763 28.6709 158.831 28.7217C158.899 28.764 158.954 28.819 158.996 28.8867C159.047 28.946 159.081 29.0137 159.098 29.0898C159.115 29.1576 159.123 29.2168 159.123 29.2676C159.123 29.3438 159.115 29.4368 159.098 29.5469C159.081 29.6484 159.017 29.7669 158.907 29.9023C158.865 29.9447 158.721 30.0589 158.476 30.2451C158.239 30.4313 157.93 30.6514 157.549 30.9053C157.168 31.1592 156.724 31.43 156.216 31.7178C155.716 31.9971 155.183 32.2552 154.616 32.4922C154.058 32.7292 153.474 32.9238 152.864 33.0762C152.255 33.237 151.654 33.3174 151.062 33.3174C150.554 33.3174 150.101 33.2201 149.703 33.0254C149.314 32.8307 148.979 32.5684 148.7 32.2383C148.429 31.9082 148.222 31.5273 148.078 31.0957C147.934 30.6641 147.862 30.2113 147.862 29.7373C147.862 29.3734 147.934 28.9756 148.078 28.5439C148.222 28.1038 148.429 27.6637 148.7 27.2236C148.971 26.7835 149.301 26.3561 149.69 25.9414C150.088 25.5182 150.533 25.1458 151.023 24.8242C151.514 24.5026 152.052 24.2445 152.636 24.0498C153.228 23.8551 153.859 23.7578 154.527 23.7578ZM162.195 25.5986C162.525 25.3955 162.864 25.2093 163.211 25.04C163.566 24.8708 163.909 24.7269 164.239 24.6084C164.569 24.4814 164.882 24.3841 165.179 24.3164C165.483 24.2402 165.754 24.2021 165.991 24.2021C166.372 24.2021 166.664 24.2952 166.867 24.4814C167.079 24.6592 167.185 24.9639 167.185 25.3955C167.185 25.4886 167.18 25.5902 167.172 25.7002C167.163 25.8018 167.146 25.9118 167.121 26.0303C167.079 26.2503 166.952 26.5085 166.74 26.8047C166.529 27.1009 166.279 27.4098 165.991 27.7314C165.712 28.0531 165.407 28.3789 165.077 28.709C164.756 29.0306 164.455 29.3311 164.176 29.6104C163.905 29.8812 163.676 30.1182 163.49 30.3213C163.312 30.5244 163.224 30.6641 163.224 30.7402C163.224 30.8079 163.228 30.8545 163.236 30.8799C163.245 30.9053 163.283 30.918 163.351 30.918C163.808 30.7233 164.315 30.4906 164.874 30.2197C165.441 29.9404 166.004 29.6569 166.562 29.3691C167.121 29.0814 167.65 28.8021 168.149 28.5312C168.649 28.252 169.072 28.0107 169.419 27.8076C169.495 27.7653 169.571 27.7314 169.647 27.7061C169.732 27.6722 169.808 27.6553 169.876 27.6553C170.028 27.6553 170.155 27.7061 170.257 27.8076C170.358 27.9092 170.409 28.0446 170.409 28.2139C170.409 28.4085 170.325 28.6328 170.155 28.8867C169.994 29.1322 169.719 29.3903 169.33 29.6611C169.034 29.8473 168.7 30.0589 168.327 30.2959C167.963 30.5244 167.578 30.7656 167.172 31.0195C166.774 31.265 166.368 31.5062 165.953 31.7432C165.547 31.9801 165.153 32.1917 164.772 32.3779C164.392 32.5641 164.032 32.7165 163.693 32.835C163.363 32.945 163.076 33 162.83 33C162.246 33 161.806 32.8604 161.51 32.5811C161.222 32.3018 161.078 31.9421 161.078 31.502C161.078 31.4342 161.082 31.3835 161.091 31.3496C161.15 30.9772 161.26 30.6175 161.421 30.2705C161.582 29.9235 161.764 29.5934 161.967 29.2803C162.17 28.9671 162.382 28.6709 162.602 28.3916C162.822 28.1038 163.021 27.8372 163.198 27.5918C163.384 27.3379 163.537 27.1051 163.655 26.8936C163.774 26.682 163.833 26.4873 163.833 26.3096C163.833 26.2673 163.825 26.2249 163.808 26.1826C163.791 26.1403 163.753 26.1191 163.693 26.1191C163.592 26.1191 163.423 26.1572 163.186 26.2334C162.957 26.3096 162.712 26.4111 162.449 26.5381C162.187 26.665 161.937 26.8132 161.7 26.9824C161.463 27.1432 161.294 27.3167 161.192 27.5029C161.057 27.7399 160.9 28.0404 160.723 28.4043C160.545 28.7682 160.359 29.1491 160.164 29.5469C159.978 29.9447 159.796 30.3382 159.618 30.7275C159.44 31.1169 159.288 31.4512 159.161 31.7305C159.06 31.9759 158.924 32.196 158.755 32.3906C158.594 32.5853 158.416 32.7503 158.222 32.8857C158.027 33.0212 157.828 33.127 157.625 33.2031C157.422 33.2793 157.236 33.3174 157.066 33.3174C156.872 33.3174 156.715 33.2666 156.597 33.165C156.487 33.0635 156.432 32.8984 156.432 32.6699C156.432 32.5768 156.444 32.4626 156.47 32.3271C156.504 32.1833 156.567 32.0267 156.66 31.8574C156.812 31.5697 156.965 31.2565 157.117 30.918C157.278 30.5794 157.46 30.1943 157.663 29.7627C157.866 29.3226 158.099 28.8232 158.361 28.2646C158.632 27.6976 158.95 27.0459 159.313 26.3096C159.195 26.208 159.093 26.0853 159.009 25.9414C158.933 25.7891 158.895 25.6029 158.895 25.3828C158.895 25.1797 158.937 25.0062 159.021 24.8623C159.106 24.71 159.22 24.5872 159.364 24.4941C159.508 24.401 159.673 24.3333 159.859 24.291C160.054 24.2402 160.257 24.2148 160.469 24.2148C160.689 24.2148 160.909 24.236 161.129 24.2783C161.349 24.3122 161.544 24.3672 161.713 24.4434C161.891 24.5195 162.035 24.6126 162.145 24.7227C162.255 24.8327 162.31 24.9596 162.31 25.1035C162.31 25.1289 162.301 25.1628 162.284 25.2051C162.267 25.2474 162.246 25.2939 162.221 25.3447C162.204 25.3955 162.187 25.4421 162.17 25.4844C162.153 25.5267 162.145 25.5605 162.145 25.5859C162.145 25.6029 162.149 25.6113 162.157 25.6113H162.17L162.195 25.5986ZM171.539 22.0186C171.539 21.8239 171.573 21.625 171.641 21.4219C171.717 21.2103 171.827 21.0199 171.971 20.8506C172.115 20.6813 172.292 20.5417 172.504 20.4316C172.724 20.3216 172.982 20.2666 173.278 20.2666C173.769 20.2666 174.112 20.3639 174.307 20.5586C174.501 20.7448 174.599 20.9818 174.599 21.2695C174.599 21.4303 174.565 21.6081 174.497 21.8027C174.438 21.9974 174.345 22.1794 174.218 22.3486C174.091 22.5094 173.926 22.6449 173.723 22.7549C173.52 22.8649 173.278 22.9199 172.999 22.9199C172.474 22.9199 172.106 22.8395 171.895 22.6787C171.683 22.5094 171.564 22.2894 171.539 22.0186ZM170.143 24.875C170.286 24.638 170.451 24.4688 170.638 24.3672C170.824 24.2656 171.014 24.2148 171.209 24.2148C171.531 24.2148 171.806 24.3206 172.034 24.5322C172.271 24.7354 172.39 24.9977 172.39 25.3193C172.381 25.3955 172.368 25.4717 172.352 25.5479C172.343 25.624 172.318 25.7002 172.275 25.7764C172.157 25.9964 172.06 26.1826 171.983 26.335C171.907 26.4873 171.835 26.6312 171.768 26.7666C171.708 26.8936 171.649 27.0205 171.59 27.1475C171.531 27.2744 171.459 27.4268 171.374 27.6045C171.272 27.8161 171.158 28.0488 171.031 28.3027C170.904 28.5482 170.782 28.8021 170.663 29.0645C170.553 29.3268 170.456 29.585 170.371 29.8389C170.295 30.0928 170.257 30.3255 170.257 30.5371C170.257 30.7656 170.312 30.918 170.422 30.9941C170.54 31.0618 170.705 31.0957 170.917 31.0957C171.154 31.0957 171.399 31.0449 171.653 30.9434C171.916 30.8418 172.178 30.7106 172.44 30.5498C172.703 30.389 172.961 30.207 173.215 30.0039C173.469 29.7923 173.706 29.5807 173.926 29.3691C174.154 29.1576 174.362 28.9544 174.548 28.7598C174.743 28.5651 174.903 28.3916 175.03 28.2393C175.2 28.0785 175.369 27.998 175.538 27.998C175.69 27.998 175.813 28.0658 175.906 28.2012C176.008 28.3366 176.059 28.5101 176.059 28.7217C176.059 28.9163 176.008 29.1237 175.906 29.3438C175.813 29.5638 175.657 29.7712 175.437 29.9658C175.005 30.4059 174.565 30.8291 174.116 31.2354C173.668 31.6331 173.206 31.9886 172.732 32.3018C172.267 32.6064 171.797 32.8519 171.323 33.0381C170.849 33.2243 170.371 33.3174 169.889 33.3174C169.203 33.3174 168.661 33.1439 168.264 32.7969C167.874 32.4414 167.68 31.8913 167.68 31.1465C167.68 30.7572 167.735 30.3763 167.845 30.0039C167.955 29.6315 168.086 29.2718 168.238 28.9248C168.391 28.5693 168.551 28.2308 168.721 27.9092C168.89 27.5791 169.034 27.266 169.152 26.9697C169.195 26.8597 169.267 26.6904 169.368 26.4619C169.478 26.2334 169.592 26.0007 169.711 25.7637C169.846 25.4844 169.99 25.1882 170.143 24.875ZM181.733 24.9385C181.733 25.2008 181.704 25.4928 181.645 25.8145C181.585 26.1276 181.488 26.4238 181.353 26.7031C181.217 26.9824 181.044 27.2152 180.832 27.4014C180.62 27.5876 180.358 27.6807 180.045 27.6807C179.876 27.6807 179.766 27.6553 179.715 27.6045C179.673 27.5537 179.651 27.4648 179.651 27.3379C179.651 27.2617 179.651 27.1517 179.651 27.0078C179.66 26.8555 179.664 26.7116 179.664 26.5762C179.664 26.4238 179.643 26.2969 179.601 26.1953C179.558 26.0853 179.452 26.0303 179.283 26.0303C179.089 26.0303 178.868 26.1064 178.623 26.2588C178.386 26.4027 178.145 26.5931 177.899 26.8301C177.662 27.0671 177.43 27.3379 177.201 27.6426C176.973 27.9388 176.765 28.2435 176.579 28.5566C176.401 28.8613 176.257 29.1576 176.147 29.4453C176.046 29.7331 175.995 29.9785 175.995 30.1816C175.995 30.4779 176.097 30.7106 176.3 30.8799C176.511 31.0492 176.795 31.1338 177.15 31.1338C177.531 31.1338 177.938 31.0703 178.369 30.9434C178.801 30.8164 179.228 30.6556 179.651 30.4609C180.083 30.2663 180.498 30.0547 180.896 29.8262C181.293 29.5977 181.653 29.3818 181.975 29.1787C182.305 28.9671 182.58 28.7894 182.8 28.6455C183.02 28.4932 183.164 28.4001 183.231 28.3662C183.367 28.2985 183.494 28.2646 183.612 28.2646C183.714 28.2646 183.799 28.29 183.866 28.3408C183.942 28.3831 184.002 28.4382 184.044 28.5059C184.086 28.5651 184.116 28.6328 184.133 28.709C184.15 28.7767 184.158 28.8359 184.158 28.8867C184.158 28.9629 184.15 29.056 184.133 29.166C184.116 29.2676 184.052 29.3861 183.942 29.5215C183.9 29.5723 183.76 29.7035 183.523 29.915C183.295 30.1182 182.994 30.3594 182.622 30.6387C182.258 30.918 181.835 31.2184 181.353 31.54C180.879 31.8532 180.367 32.141 179.816 32.4033C179.275 32.6657 178.712 32.8815 178.128 33.0508C177.544 33.2285 176.968 33.3174 176.401 33.3174C175.97 33.3174 175.585 33.2497 175.246 33.1143C174.916 32.9788 174.637 32.7969 174.408 32.5684C174.18 32.3314 174.006 32.0563 173.888 31.7432C173.769 31.43 173.71 31.0999 173.71 30.7529C173.71 30.3721 173.799 29.9362 173.977 29.4453C174.154 28.946 174.4 28.4382 174.713 27.9219C175.026 27.4056 175.394 26.8978 175.817 26.3984C176.241 25.8991 176.698 25.4548 177.188 25.0654C177.688 24.6761 178.204 24.363 178.737 24.126C179.279 23.889 179.825 23.7705 180.375 23.7705C180.561 23.7705 180.735 23.7917 180.896 23.834C181.065 23.8763 181.209 23.944 181.327 24.0371C181.454 24.1217 181.551 24.2402 181.619 24.3926C181.695 24.5449 181.733 24.7269 181.733 24.9385Z" fill="#FFFF00"/>
</svg>
